REM DIRINDEX 1\2,1\3,1\4,1\6,1\5\7,1\5\8
REM DIRNAME folder01,folder02,folder03,folder04,folder05,folder06,folder07,folder08
TITLE ""
FILE "DB4500_5th_6C_28.mp3" MP3
  TRACK 01 AUDIO
    TITLE "0:"
    INDEX 01 00:00:00
  TRACK 02 AUDIO
    TITLE "2:cjc114_4203"
    INDEX 01 00:00:03
  TRACK 03 AUDIO
    TITLE "0:"
    INDEX 01 00:01:07
  TRACK 04 AUDIO
    TITLE "3:cjc114_4204"
    INDEX 01 00:01:30
  TRACK 05 AUDIO
    TITLE "0:"
    INDEX 01 00:02:43
  TRACK 06 AUDIO
    TITLE "4:cjc114_4205"
    INDEX 01 00:02:61
  TRACK 07 AUDIO
    TITLE "0:"
    INDEX 01 00:05:12
  TRACK 08 AUDIO
    TITLE "4:cjc114_4206"
    INDEX 01 00:05:57
  TRACK 09 AUDIO
    TITLE "0:"
    INDEX 01 00:08:52
  TRACK 10 AUDIO
    TITLE "2:cjc114_4207"
    INDEX 01 00:09:22
  TRACK 11 AUDIO
    TITLE "0:"
    INDEX 01 00:10:33
  TRACK 12 AUDIO
    TITLE "3:cjc114_4208"
    INDEX 01 00:10:65
  TRACK 13 AUDIO
    TITLE "0:"
    INDEX 01 00:11:72
  TRACK 14 AUDIO
    TITLE "4:cjc114_4209"
    INDEX 01 00:12:20
  TRACK 15 AUDIO
    TITLE "0:"
    INDEX 01 00:15:32
  TRACK 16 AUDIO
    TITLE "2:cjc114_4210"
    INDEX 01 00:16:06
  TRACK 17 AUDIO
    TITLE "0:"
    INDEX 01 00:17:02
  TRACK 18 AUDIO
    TITLE "3:cjc114_4211"
    INDEX 01 00:17:31
  TRACK 19 AUDIO
    TITLE "0:"
    INDEX 01 00:18:52
  TRACK 20 AUDIO
    TITLE "4:cjc114_4212"
    INDEX 01 00:19:01
  TRACK 21 AUDIO
    TITLE "0:"
    INDEX 01 00:21:09
  TRACK 22 AUDIO
    TITLE "2:cjc114_4213"
    INDEX 01 00:21:58
  TRACK 23 AUDIO
    TITLE "0:"
    INDEX 01 00:22:72
  TRACK 24 AUDIO
    TITLE "3:cjc114_4214"
    INDEX 01 00:23:20
  TRACK 25 AUDIO
    TITLE "0:"
    INDEX 01 00:24:25
  TRACK 26 AUDIO
    TITLE "4:cjc114_4215"
    INDEX 01 00:24:49
  TRACK 27 AUDIO
    TITLE "0:"
    INDEX 01 00:27:43
  TRACK 28 AUDIO
    TITLE "2:cjc114_4216"
    INDEX 01 00:28:15
  TRACK 29 AUDIO
    TITLE "0:"
    INDEX 01 00:29:19
  TRACK 30 AUDIO
    TITLE "3:cjc114_4217"
    INDEX 01 00:29:38
  TRACK 31 AUDIO
    TITLE "0:"
    INDEX 01 00:30:65
  TRACK 32 AUDIO
    TITLE "4:cjc114_4218"
    INDEX 01 00:31:10
  TRACK 33 AUDIO
    TITLE "0:"
    INDEX 01 00:33:58
  TRACK 34 AUDIO
    TITLE "2:cjc114_4219"
    INDEX 01 00:34:30
  TRACK 35 AUDIO
    TITLE "0:"
    INDEX 01 00:35:43
  TRACK 36 AUDIO
    TITLE "3:cjc114_4220"
    INDEX 01 00:35:64
  TRACK 37 AUDIO
    TITLE "0:"
    INDEX 01 00:37:05
  TRACK 38 AUDIO
    TITLE "4:cjc114_4221"
    INDEX 01 00:37:30
  TRACK 39 AUDIO
    TITLE "0:"
    INDEX 01 00:40:36
  TRACK 40 AUDIO
    TITLE "2:cjc114_4222"
    INDEX 01 00:41:04
  TRACK 41 AUDIO
    TITLE "0:"
    INDEX 01 00:42:18
  TRACK 42 AUDIO
    TITLE "3:cjc114_4223"
    INDEX 01 00:42:41
  TRACK 43 AUDIO
    TITLE "0:"
    INDEX 01 00:43:70
  TRACK 44 AUDIO
    TITLE "4:cjc114_4224"
    INDEX 01 00:44:18
  TRACK 45 AUDIO
    TITLE "0:"
    INDEX 01 00:48:69
  TRACK 46 AUDIO
    TITLE "2:cjc114_4225"
    INDEX 01 00:49:37
  TRACK 47 AUDIO
    TITLE "0:"
    INDEX 01 00:50:58
  TRACK 48 AUDIO
    TITLE "3:cjc114_4226"
    INDEX 01 00:51:03
  TRACK 49 AUDIO
    TITLE "0:"
    INDEX 01 00:52:20
  TRACK 50 AUDIO
    TITLE "4:cjc114_4227"
    INDEX 01 00:52:37
  TRACK 51 AUDIO
    TITLE "0:"
    INDEX 01 00:56:27
  TRACK 52 AUDIO
    TITLE "2:cjc114_4228"
    INDEX 01 00:56:72
  TRACK 53 AUDIO
    TITLE "0:"
    INDEX 01 00:58:18
  TRACK 54 AUDIO
    TITLE "3:cjc114_4229"
    INDEX 01 00:58:38
  TRACK 55 AUDIO
    TITLE "0:"
    INDEX 01 00:59:71
  TRACK 56 AUDIO
    TITLE "4:cjc114_4230"
    INDEX 01 01:00:13
  TRACK 57 AUDIO
    TITLE "0:"
    INDEX 01 01:03:20
  TRACK 58 AUDIO
    TITLE "2:cjc114_4231"
    INDEX 01 01:03:65
  TRACK 59 AUDIO
    TITLE "0:"
    INDEX 01 01:04:62
  TRACK 60 AUDIO
    TITLE "3:cjc114_4232"
    INDEX 01 01:05:09
  TRACK 61 AUDIO
    TITLE "0:"
    INDEX 01 01:06:16
  TRACK 62 AUDIO
    TITLE "4:cjc114_4233"
    INDEX 01 01:06:42
  TRACK 63 AUDIO
    TITLE "0:"
    INDEX 01 01:08:66
  TRACK 64 AUDIO
    TITLE "2:cjc114_4234"
    INDEX 01 01:09:36
  TRACK 65 AUDIO
    TITLE "0:"
    INDEX 01 01:10:47
  TRACK 66 AUDIO
    TITLE "3:cjc114_4235"
    INDEX 01 01:10:71
  TRACK 67 AUDIO
    TITLE "0:"
    INDEX 01 01:11:64
  TRACK 68 AUDIO
    TITLE "4:cjc114_4236"
    INDEX 01 01:12:11
  TRACK 69 AUDIO
    TITLE "0:"
    INDEX 01 01:15:52
  TRACK 70 AUDIO
    TITLE "2:cjc114_4237"
    INDEX 01 01:16:16
  TRACK 71 AUDIO
    TITLE "0:"
    INDEX 01 01:17:37
  TRACK 72 AUDIO
    TITLE "3:cjc114_4238"
    INDEX 01 01:17:57
  TRACK 73 AUDIO
    TITLE "0:"
    INDEX 01 01:18:62
  TRACK 74 AUDIO
    TITLE "4:cjc114_4239"
    INDEX 01 01:19:05
  TRACK 75 AUDIO
    TITLE "0:"
    INDEX 01 01:22:46
  TRACK 76 AUDIO
    TITLE "2:cjc114_4240"
    INDEX 01 01:23:16
  TRACK 77 AUDIO
    TITLE "0:"
    INDEX 01 01:24:16
  TRACK 78 AUDIO
    TITLE "3:cjc114_4241"
    INDEX 01 01:24:36
  TRACK 79 AUDIO
    TITLE "0:"
    INDEX 01 01:25:57
  TRACK 80 AUDIO
    TITLE "4:cjc114_4242"
    INDEX 01 01:25:74
  TRACK 81 AUDIO
    TITLE "0:"
    INDEX 01 01:29:13
  TRACK 82 AUDIO
    TITLE "2:cjc114_4243"
    INDEX 01 01:29:58
  TRACK 83 AUDIO
    TITLE "0:"
    INDEX 01 01:30:58
  TRACK 84 AUDIO
    TITLE "3:cjc114_4244"
    INDEX 01 01:31:04
  TRACK 85 AUDIO
    TITLE "0:"
    INDEX 01 01:32:19
  TRACK 86 AUDIO
    TITLE "4:cjc114_4245"
    INDEX 01 01:32:41
  TRACK 87 AUDIO
    TITLE "0:"
    INDEX 01 01:36:05
